<?xml version="1.0" encoding="UTF-8"?>
<!DOCTYPE svg PUBLIC "-//W3C//DTD SVG 1.1//EN" "http://www.w3.org/Graphics/SVG/1.1/DTD/svg11.dtd">
<svg xmlns="http://www.w3.org/2000/svg" version="1.1" width="32px" height="32px" style="shape-rendering:geometricPrecision; text-rendering:geometricPrecision; image-rendering:optimizeQuality; fill-rule:evenodd; clip-rule:evenodd" xmlns:xlink="http://www.w3.org/1999/xlink">
<g><path style="opacity:0.924" fill="#ff0a05" d="M 9.5,-0.5 C 13.5,-0.5 17.5,-0.5 21.5,-0.5C 25.8333,1.83333 29.1667,5.16667 31.5,9.5C 31.5,13.5 31.5,17.5 31.5,21.5C 29.1667,25.8333 25.8333,29.1667 21.5,31.5C 17.5,31.5 13.5,31.5 9.5,31.5C 5.16667,29.1667 1.83333,25.8333 -0.5,21.5C -0.5,17.5 -0.5,13.5 -0.5,9.5C 1.83333,5.16667 5.16667,1.83333 9.5,-0.5 Z"/></g>
<g><path style="opacity:1" fill="#ffbfbd" d="M 25.5,11.5 C 26.5,11.5 27.5,11.5 28.5,11.5C 28.5,12.5 28.5,13.5 28.5,14.5C 27.1667,14.5 25.8333,14.5 24.5,14.5C 24.5,15.5 24.5,16.5 24.5,17.5C 28.5878,17.2184 29.0878,17.8851 26,19.5C 22.8696,17.182 22.7029,14.5154 25.5,11.5 Z"/></g>
<g><path style="opacity:1" fill="#ffb8b5" d="M 8.5,16.5 C 8.00098,19.3892 6.50098,20.0558 4,18.5C 4.20069,15.9234 4.36736,13.5901 4.5,11.5C 5.83333,12.8333 7.16667,12.8333 8.5,11.5C 9.16667,12.8333 9.83333,14.1667 10.5,15.5C 14.8364,9.92173 16.6697,10.5884 16,17.5C 16.7636,13.9005 18.9302,11.9005 22.5,11.5C 22.5,12.5 22.5,13.5 22.5,14.5C 21.1667,14.5 19.8333,14.5 18.5,14.5C 18.5,15.5 18.5,16.5 18.5,17.5C 19.8734,17.3433 21.2068,17.51 22.5,18C 22.1667,18.3333 21.8333,18.6667 21.5,19C 19.4259,18.7727 17.4259,18.9394 15.5,19.5C 14.2011,18.91 13.3678,17.91 13,16.5C 12.5814,17.6721 11.9147,18.6721 11,19.5C 10.7645,17.8807 9.93112,16.8807 8.5,16.5 Z"/></g>
<g><path style="opacity:1" fill="#ff2b21" d="M 8.5,16.5 C 6.40171,17.9143 5.40171,17.2476 5.5,14.5C 7.17876,14.2852 8.17876,14.9519 8.5,16.5 Z"/></g>
</svg>
